<svg xmlns="http://www.w3.org/2000/svg" width="130" height="130" viewBox="0 0 130 130">
  <defs>
    <style>
      .cls-1 {
        fill: #969dab;
      }
    </style>
  </defs>
  <g id="circle_back2">
    <g>
      <path class="cls-1" d="M65,31.47H91.22c5.09,0,10.18,0,15.28.05a6.23,6.23,0,0,1,6,3.69,1.28,1.28,0,0,1-.48,1.91c-7.44,5.23-14.82,10.54-22.26,15.77C83.9,57,78,61.17,72,65.14a11.86,11.86,0,0,1-13.72,0c-8.08-5.28-15.95-10.88-23.88-16.4-5.4-3.77-10.73-7.63-16.13-11.4-.9-.63-1.13-1.18-.61-2.18a6,6,0,0,1,5.63-3.52c5.3,0,10.59,0,15.89,0H65Z"/>
      <path class="cls-1" d="M65.09,97.89H42.29c-6.26,0-12.52,0-18.79,0A6.23,6.23,0,0,1,17.45,94,1.19,1.19,0,0,1,18,92.35c6.4-4.52,12.77-9.09,19.17-13.62,4.72-3.34,9.47-6.62,14.18-10a1.36,1.36,0,0,1,1.91,0,19.61,19.61,0,0,0,11.43,4.16,17.88,17.88,0,0,0,11.82-4,1.7,1.7,0,0,1,2.42,0q16.43,11.63,32.91,23.17c.83.59,1.09,1.11.59,2.08a6,6,0,0,1-5.72,3.58L88,97.88q-11.46,0-22.93,0Z"/>
      <path class="cls-1" d="M17.12,86V43L47.6,64.46Z"/>
      <path class="cls-1" d="M82.59,64.49,113,43v43Z"/>
    </g>
  </g>
</svg>
