<svg xmlns="http://www.w3.org/2000/svg" width="28.59" height="23.7" viewBox="0 0 28.59 23.7">
  <defs>
    <style>
      .cls-1 {
        fill: #fff;
      }
    </style>
  </defs>
  <g id="circle_back2">
    <path class="cls-1" d="M9.91,11.87,6,8.18C7.61,8,9,7.8,10.35,7.7c.79-.07,1-.34.82-1.14-.32-1.34-.54-2.71-.85-4.32,1.38.77,2.59,1.38,3.73,2.1.77.48,1.12.34,1.46-.48C16,2.61,16.64,1.4,17.3,0l2.28,4.83,4.69-2.55c-.3,1.57-.51,2.94-.83,4.27-.18.79,0,1.08.82,1.15,1.35.1,2.7.29,4.16.46L24.7,11.87l3.89,3.67-5.3.67,1,5.26-4.69-2.56L17.31,23.7,15,18.92l-4.67,2.54,1-5.23L6,15.53ZM17.34,5.6A6.24,6.24,0,0,0,11,11.89a6.38,6.38,0,0,0,6.26,6.32,6.4,6.4,0,0,0,6.34-6.36A6.26,6.26,0,0,0,17.34,5.6Zm0,16.32,1.36-3H16Zm-3-3.52L12,16.8,11.42,20Zm0-13.07L11.4,3.76,12.06,7Zm8.33,11.44-2.21,1.64L23.17,20Zm1.87-4-.79,2.61,3.18-.4Zm-16.67-4L10.15,11,11,8.38ZM22.56,7l.62-3.19L20.37,5.33ZM11,15.34l-.84-2.58L7.79,15ZM26.55,9l-.05-.31-2.87-.34.82,2.6ZM16,4.76h2.67L17.3,1.85Z"/>
  </g>
</svg>
