<svg xmlns="http://www.w3.org/2000/svg" width="595.28" height="449.19" viewBox="0 0 595.28 449.19">
  <defs>
    <style>
      .cls-1 {
        fill: #fff;
      }

      .cls-2 {
        fill: #1d1d1b;
      }
    </style>
  </defs>
  <g id="borders">
    <g>
      <path class="cls-1" d="M525.59,102.19c-1.76.42-1.88,2-5.75,4.31a20.71,20.71,0,0,1-7.91,2.88c-3.76.44-5.05-.86-10.79-2.16s-5.79-.35-12.23-1.44c-8.12-1.37-7.7-2.8-13.67-3.59-6.41-.85-7.22.76-16.54.72-6.48,0-10,0-14.39-1.44-5.7-1.81-10.33-5.12-17.26-10.07-4.62-3.3-6.72-5.26-10.07-5-3.65.25-4.08,2.76-7.92,3.6s-5.12-1.35-15.1-5c0,0-.35-.13-13.67-4.31-7.63-7.42-11.88-8.17-14.38-7.2-3.41,1.32-4.52,6.15-6.48,5.76s-1-4.86-4.31-7.91c-2.68-2.47-7.4-3.36-9.36-1.44-1.51,1.48-1.14,4.43-1.09,4.78a15.66,15.66,0,0,0,1.09,3.13c.9,2.52,1.68,4.7,1,5.32-.93.86-4.79-1.17-7.72-3.86-4.33-4-4.76-7.67-7.71-8A3.57,3.57,0,0,0,328,72.68c-.72,1.4.88,2.84,2.41,7.24a18,18,0,0,1,1.21,4.82c.1,1.32.46,5.9-2.17,8-2.19,1.7-5.45.9-9.16,0-2.45-.6-2.95-1.13-7-2.17-.34-.09-2.14-.55-4.58-1-4.12-.7-6.19-1-7,0s.4,2.45-.49,3.38-3,.4-4.58,0a14.09,14.09,0,0,1-3.13-1.21c-3.76-2-4.29-3.44-7.72-5.54-2.2-1.35-4.31-2.6-6.51-1.93a4.25,4.25,0,0,0-2.17,1.44c-.84,1.12-.66,2.24-.24,7a35.11,35.11,0,0,1,.24,5.3c-.09,1.77-.37,3.85-.72,3.86-.6,0-.44-5.89-2.17-6.27-1-.22-2.5,1.52-3.14,3.13-.8,2,0,3.15-.72,3.86-1.17,1.17-4.3-.89-8.2-2.17-2.38-.78-9.11-3-14.23-.48-4.26,2.08-4.15,5.83-8.92,7.72-2.42.95-4,1.59-5.95,1.15-.84-.2-1.82-.63-2.25-.19s-.06,1.4.26,2.17c1.57,3.75,3.85,5.9,3.62,6.2-.46.6-10.39-7.32-12.11-5.77-1.48,1.34,5.07,8,2.88,12.11-1.31,2.47-6.27,2.83-16.14,3.46-9.65.62-12.23-.07-15.58,2.31s-2.93,4.75-6.34,6.35c-5.25,2.45-10.59-1.07-11.54.57s5.25,4.63,5.77,10.38c.37,4-2.5,4.68-4,11.54-1.32,5.88,0,8.91-1.73,9.8s-3.91-2-9.22-4.61c-1.82-.88-11.6-5.61-16.15-1.73-2.7,2.3-2.93,7.09-1.73,10.38,2.45,6.75,11.47,8.82,13.26,9.23,7,1.6,10.77-.85,13.84,2.31,1.14,1.16.59,1.46,3.46,6.34,2.24,3.79,3.37,4.95,2.89,5.77-1,1.69-6.91-1.52-8.65.58-1.25,1.49-.08,5.32,2.3,7.49,3.58,3.26,8.44,1.45,9.23,3.46s-4.52,4.16-6.34,9.81c-1.42,4.38.06,8.51,1.15,11.53,2.54,7.07,5.8,6.9,9.23,13.85,2.51,5.08.85,5.33,4,15.57,3.9,12.54,7,14,8.07,14.42,3,1.11,3.79-1,8.65-.58,5.21.42,11.56,3.4,14.42,8.65,1.92,3.52,1,5.77,2.88,6.92,2.92,1.81,9.09-.39,12.12-4.61,3.52-4.92.46-9.35,4-16.73,1.48-3,2.36-5.41,4.62-6.34,5.9-2.42,16.48,6.18,15.57,11.53s-12.41,5.71-12.69,11c-.11,2.22,1.9,2.89,3.46,6.35,2.23,4.93,1,10,0,13.84-3.69,14.05-7,20.75-9.23,29.41-3.52,13.49,5.36,6.44,5.82,6.56,1.55.4-4.62-.28,11.51-9.08,5.8-3.16,7.67-.75,16.88-5.43,2.36-1.19,3.63-2.05,16.29-10.25,7.22-4.68,10.88-7,13.27-6,3.94,1.6,3.24,8.09,7.23,9.05a5.59,5.59,0,0,0,6-3c1.38-3.69-4.37-8.92-4.23-9S329.31,317,329.31,317C338.5,327.56,342,331.12,346,330.57c2.47-.34,3.57-2.1,6.27-1.56,2,.4,2.67,1.62,6,4.22,2.93,2.27,4.39,3.41,6.08,4,5.68,2,10.84-2.48,12-1s-5.2,6.11-4.23,10.86c.9,4.39,7,3.54,11.64,9,6.25,7.41.84,15.87,6.46,19.95,4.33,3.14,8.73-1.05,15.68,3,4.08,2.39,4,4.66,6.9,5.06,5,.67,6.36-5.71,13.6-6.87,4.84-.77,7.46,1.55,10.26-.6,2.47-1.9,1.68-4.68,3.62-5.43,2.55-1,4.68,3.56,10.85,6.63,4.75,2.37,5.27.56,14.41,3.25,6.35,1.87,8.59,3.48,10.32,2.18s.45-3.94,1.81-9a24.36,24.36,0,0,1,5-9.26c5-6.21,8.87-5.13,10.38-9.23,2-5.35-3.64-9.4-1.73-13.27,2.67-5.41,14.83.07,19.61-5.19,7.07-7.77-6.45-34.06-13.84-48.45-2.73-5.31-6.63-12.3-7.5-22.49-.61-7.13.69-10.74,1.15-15.57,2.25-23.72-20.1-33.06-16.15-48.45,3.19-12.43,18.35-8.58,27.11-26.53,5-10.18,1.84-15,9.23-27.11,2.66-4.36,6.47-10.62,13.84-15.57,8.83-5.93,14.14-4.2,16.15-8.65C544.57,116.41,531.69,100.71,525.59,102.19Z"/>
      <path class="cls-1" d="M62.86,323.59c.75,3.4,4.83,5.5,7.68,5.91,6.82,1,12.19-7.06,13-8.27.61-.91,2.15-3.35,4.14-13,2.6-12.59,1.45-15.53,4.72-18.9s8.48-4.35,10.64-4.72a28.67,28.67,0,0,1,8.86,0c3.62.48,4.08,1.15,8.27,1.77,3.87.57,7.81,1.16,8.86-.59.87-1.47-.53-4.19-.68-4.5-.84-1.63-1.88-2.21-1.69-2.59.47-.9,6.18,2.47,8.27.59,1.46-1.31-.39-3.8,1.18-5.91,1.78-2.37,5.22-.66,7.09-2.95s-.67-5.49,1.18-7.68,5,.17,8.27-1.77c4.36-2.61,2.55-9.28,5.91-10.63,3.66-1.48,8.09,5.52,10.63,4.13,2.14-1.17,2.24-7.9-1.18-11.81-3.6-4.12-7.84-1.37-14.77-4.72-9.09-4.41-7.58-11.95-14.76-13.59-6.32-1.44-9.23,4-17.13,1.77-3-.85-4.13-2.09-7.68-2.36-2.93-.23-3.86.48-9.45,1.77-8.84,2-12.42,1.63-13.59,4.14a11.11,11.11,0,0,0-.84,4.86,10.18,10.18,0,0,0,.19,1.57c.76,4,3.33,6.86,3,7.15-.47.43-5.32-6.3-8.86-5.31-1.5.41-2.4,2.44-4.14,6.49-2.48,5.77-2.46,8.09-3.54,8.27-2.71.45-4.71-13.69-10-14.17-3.23-.3-7.46,4.44-7.09,8.26.42,4.33,6.5,5.19,8.27,11.23a13.06,13.06,0,0,1,0,6.49c-.47,2.17-1.06,4.9-3,5.91-3.48,1.86-8.08-3.79-10-2.36s-.42,10.56,4.73,13c3.92,1.85,6.85-1.54,10,.59,2.67,1.79,1.51,4.78,4.72,10.64,2.61,4.75,4.14,4.19,4.73,6.49C81,307.14,61,315.27,62.86,323.59Z"/>
      <path class="cls-1" d="M71.13,180.06c-.13.58,3.35,1,6.5,4.14,2.8,2.8,2.19,4.61,4.13,5.9,4.25,2.83,10.09-3.88,14.18-1.77,4.36,2.26.06,11.13,5.31,20.08,3.57,6.07,10.93,11.15,15.36,9.45,5.8-2.22,4.66-15.28,9.45-15.94,2.73-.39,4.39,3.69,7.09,3,3-.83,2.18-6.32,5.91-8.27,3.43-1.79,6.39,1.69,8.86,0,3-2.08,2.46-10.06-1.19-15.36-1.56-2.27-3.42-3.51-7.08-5.9-8.72-5.7-11.49-4.38-14.77-8.27-4.39-5.21-2.22-10.86-5.32-11.82-2.89-.89-7.75,3.13-9.45,7.68-1.5,4.06.17,6.76-1.77,8.86-1.79,1.94-4.61-.44-8.27,1.18-2.62,1.17-3.2,3.11-4.72,4.73C88.79,184.68,71.42,178.75,71.13,180.06Z"/>
      <path class="cls-1" d="M173.27,240.4c1.68-.31,2.81-2.75,3-4.58.15-1.62-.56-3.07-2-6-1.19-2.43-1.54-2.5-2.19-4.18-1.06-2.74-.64-3.79-1.19-5.18-1.88-4.68-12.25-6.71-14.74-3.59-1.76,2.21.7,6.63-1.2,7.77-.92.56-1.83-.29-3.38.4a4.15,4.15,0,0,0-2.39,2.79c-.3,2.44,6.45,1.87,10,6.77,1.39,1.94,1.44,3.5,3,4,1.91.6,2.91-1.41,5.38-1.19C170.46,237.68,171.24,240.77,173.27,240.4Z"/>
    </g>
  </g>
  <g id="cities">
    <g>
      <path class="cls-2" d="M267.91,92.44h-2.45v-.89h6v.89H269v7.2h-1.06Z"/>
      <path class="cls-2" d="M274.75,99.64l-.08-.74h0a2.14,2.14,0,0,1-1.77.87,1.66,1.66,0,0,1-1.78-1.67c0-1.4,1.25-2.17,3.49-2.16v-.12a1.19,1.19,0,0,0-1.32-1.34,2.93,2.93,0,0,0-1.51.43l-.24-.7a3.63,3.63,0,0,1,1.91-.51c1.77,0,2.21,1.21,2.21,2.37v2.17a8.52,8.52,0,0,0,.09,1.4Zm-.15-3c-1.15,0-2.46.18-2.46,1.31a.93.93,0,0,0,1,1,1.45,1.45,0,0,0,1.41-1,1.35,1.35,0,0,0,.06-.34Z"/>
      <path class="cls-2" d="M277.32,91.12h1.06v8.52h-1.06Z"/>
      <path class="cls-2" d="M280.15,91.12h1.06v8.52h-1.06Z"/>
      <path class="cls-2" d="M284.16,92.2a.62.62,0,0,1-.67.65.63.63,0,0,1-.64-.65.65.65,0,0,1,.66-.66A.63.63,0,0,1,284.16,92.2ZM283,99.64V93.83H284v5.81Z"/>
      <path class="cls-2" d="M285.79,95.4c0-.6,0-1.09,0-1.57h.93l.06,1h0a2.13,2.13,0,0,1,1.92-1.09c.8,0,2.05.48,2.05,2.47v3.47h-1.06V96.29c0-.94-.35-1.72-1.34-1.72a1.51,1.51,0,0,0-1.42,1.08,1.55,1.55,0,0,0-.07.5v3.49h-1.06Z"/>
    </g>
    <circle class="cls-2" cx="277.33" cy="105.44" r="2.26"/>
    <circle class="cls-2" cx="251.59" cy="124.49" r="1.93"/>
    <g>
      <path class="cls-2" d="M245.13,116.05h.67v2.51h0c.14-.2.27-.39.41-.56l1.59-2h.83l-1.88,2.21,2,3H248l-1.71-2.55-.5.57v2h-.67Z"/>
      <path class="cls-2" d="M249.67,119.51a1.19,1.19,0,0,0,1.28,1.3,2.36,2.36,0,0,0,1-.2l.12.49a3,3,0,0,1-1.24.23,1.73,1.73,0,0,1-1.84-1.88,1.81,1.81,0,0,1,1.75-2,1.59,1.59,0,0,1,1.55,1.76,2,2,0,0,1,0,.32Zm2-.49a1,1,0,0,0-.94-1.1,1.12,1.12,0,0,0-1,1.1Z"/>
      <path class="cls-2" d="M253.91,116.47a.39.39,0,0,1-.43.41.4.4,0,0,1-.41-.41.42.42,0,0,1,.42-.43A.41.41,0,0,1,253.91,116.47Zm-.76,4.78v-3.73h.68v3.73Z"/>
      <path class="cls-2" d="M255,115.77h.68v5.48H255Z"/>
      <path class="cls-2" d="M258.85,121.25l-.06-.47h0a1.38,1.38,0,0,1-1.14.56,1.06,1.06,0,0,1-1.14-1.07c0-.91.8-1.4,2.24-1.39v-.08a.76.76,0,0,0-.85-.86,1.86,1.86,0,0,0-1,.27l-.15-.44a2.22,2.22,0,0,1,1.22-.34c1.15,0,1.43.78,1.43,1.53v1.4a4.85,4.85,0,0,0,.06.89Zm-.1-1.9c-.74,0-1.58.11-1.58.84a.6.6,0,0,0,.64.65.93.93,0,0,0,.9-.63.78.78,0,0,0,0-.21Z"/>
    </g>
    <circle class="cls-2" cx="183.31" cy="177.82" r="1.93"/>
    <g>
      <path class="cls-2" d="M168.56,169.39v2.17h2.52v-2.17h.67v5.2h-.67v-2.44h-2.52v2.44h-.67v-5.2Z"/>
      <path class="cls-2" d="M175,174.59l-.05-.47h0a1.39,1.39,0,0,1-1.14.56,1.07,1.07,0,0,1-1.14-1.08c0-.9.8-1.39,2.25-1.39v-.07a.78.78,0,0,0-.85-.87,1.9,1.9,0,0,0-1,.28l-.15-.45a2.34,2.34,0,0,1,1.23-.33c1.14,0,1.42.78,1.42,1.53v1.4a4.85,4.85,0,0,0,.06.89Zm-.1-1.91c-.74,0-1.58.12-1.58.85a.59.59,0,0,0,.64.64.92.92,0,0,0,.9-.62.57.57,0,0,0,0-.22Z"/>
      <path class="cls-2" d="M178.68,174.59l-.05-.47h0a1.4,1.4,0,0,1-1.14.56,1.07,1.07,0,0,1-1.14-1.08c0-.9.8-1.39,2.24-1.39v-.07a.77.77,0,0,0-.85-.87,1.87,1.87,0,0,0-1,.28l-.15-.45a2.31,2.31,0,0,1,1.23-.33c1.14,0,1.42.78,1.42,1.53v1.4a4.85,4.85,0,0,0,.06.89Zm-.1-1.91c-.74,0-1.58.12-1.58.85a.59.59,0,0,0,.64.64.92.92,0,0,0,.9-.62.85.85,0,0,0,0-.22Z"/>
      <path class="cls-2" d="M180.33,172.07c0-.47,0-.86,0-1.22h.61l0,.64h0a1.48,1.48,0,0,1,1.33-.72,1.68,1.68,0,0,1,1.58,1.9,1.77,1.77,0,0,1-1.69,2,1.3,1.3,0,0,1-1.15-.59h0v2h-.67Zm.67,1a2.4,2.4,0,0,0,0,.28,1,1,0,0,0,1,.79c.72,0,1.14-.58,1.14-1.44s-.4-1.39-1.12-1.39a1.08,1.08,0,0,0-1,.84.92.92,0,0,0-.05.28Z"/>
      <path class="cls-2" d="M184.63,173.9a1.77,1.77,0,0,0,.89.27c.5,0,.73-.25.73-.56s-.2-.5-.7-.69c-.67-.24-1-.61-1-1a1.15,1.15,0,0,1,1.29-1.1,1.91,1.91,0,0,1,.92.23l-.17.49a1.44,1.44,0,0,0-.76-.21c-.4,0-.63.23-.63.51s.23.45.71.63c.65.25,1,.57,1,1.13s-.51,1.12-1.39,1.12a2.06,2.06,0,0,1-1-.26Z"/>
      <path class="cls-2" d="M189.84,174.59l-.05-.47h0a1.39,1.39,0,0,1-1.14.56,1.07,1.07,0,0,1-1.14-1.08c0-.9.8-1.39,2.25-1.39v-.07a.78.78,0,0,0-.85-.87,1.9,1.9,0,0,0-1,.28l-.15-.45a2.34,2.34,0,0,1,1.23-.33c1.14,0,1.42.78,1.42,1.53v1.4a4.85,4.85,0,0,0,.06.89Zm-.1-1.91c-.74,0-1.58.12-1.58.85a.59.59,0,0,0,.64.64.92.92,0,0,0,.9-.62.57.57,0,0,0,0-.22Z"/>
      <path class="cls-2" d="M191.49,169.11h.68v5.48h-.68Z"/>
      <path class="cls-2" d="M196.44,173.57q0,.59,0,1h-.6l0-.61h0a1.4,1.4,0,0,1-1.23.7c-.59,0-1.29-.33-1.29-1.64v-2.19H194v2.07c0,.71.21,1.19.83,1.19a1,1,0,0,0,.9-.62.93.93,0,0,0,.06-.34v-2.3h.68Z"/>
    </g>
    <circle class="cls-2" cx="106.07" cy="277.3" r="1.93"/>
    <g>
      <path class="cls-2" d="M91.23,268.87h.67v2.51h0l.41-.56,1.59-1.95h.83l-1.88,2.21,2,3h-.79l-1.72-2.55-.49.57v2h-.67Z"/>
      <path class="cls-2" d="M98.46,273.05a10.2,10.2,0,0,0,0,1h-.61l0-.61h0a1.41,1.41,0,0,1-1.24.7c-.58,0-1.29-.33-1.29-1.64v-2.19H96v2.07c0,.71.22,1.19.84,1.19a1,1,0,0,0,.89-.61,1,1,0,0,0,.07-.35v-2.3h.67Z"/>
      <path class="cls-2" d="M99.59,271.5c0-.44,0-.82,0-1.17h.59l0,.74h0a1.12,1.12,0,0,1,1-.82l.19,0v.64l-.23,0a1,1,0,0,0-.91.87,1.58,1.58,0,0,0,0,.32v2h-.67Z"/>
      <path class="cls-2" d="M102.41,272.33a1.19,1.19,0,0,0,1.28,1.29,2.47,2.47,0,0,0,1-.19l.11.49a3,3,0,0,1-1.24.23,1.74,1.74,0,0,1-1.84-1.88,1.82,1.82,0,0,1,1.76-2,1.58,1.58,0,0,1,1.54,1.76c0,.14,0,.25,0,.32Zm2-.49a1,1,0,0,0-.94-1.1,1.12,1.12,0,0,0-1,1.1Z"/>
      <path class="cls-2" d="M105.81,273.38a1.77,1.77,0,0,0,.89.27c.49,0,.73-.25.73-.56s-.2-.5-.7-.69c-.67-.24-1-.61-1-1a1.15,1.15,0,0,1,1.29-1.1,1.91,1.91,0,0,1,.92.23l-.17.5a1.4,1.4,0,0,0-.76-.22c-.4,0-.63.23-.63.51s.23.45.71.63c.65.25,1,.57,1,1.13s-.51,1.12-1.39,1.12a2.06,2.06,0,0,1-1-.26Z"/>
      <path class="cls-2" d="M108.86,273.38a1.81,1.81,0,0,0,.9.27c.49,0,.72-.25.72-.56s-.19-.5-.69-.69c-.68-.24-1-.61-1-1a1.15,1.15,0,0,1,1.29-1.1,1.91,1.91,0,0,1,.92.23l-.17.5a1.41,1.41,0,0,0-.77-.22c-.4,0-.62.23-.62.51s.22.45.71.63c.65.25,1,.57,1,1.13s-.51,1.12-1.4,1.12a2.06,2.06,0,0,1-1-.26Z"/>
      <path class="cls-2" d="M114.08,274.07l-.06-.47h0a1.4,1.4,0,0,1-1.14.56,1.07,1.07,0,0,1-1.15-1.08c0-.9.81-1.39,2.25-1.39v-.07a.77.77,0,0,0-.85-.87,1.84,1.84,0,0,0-1,.28l-.16-.45a2.34,2.34,0,0,1,1.23-.33c1.14,0,1.42.78,1.42,1.53v1.4a5.93,5.93,0,0,0,.06.89Zm-.1-1.91c-.75,0-1.59.12-1.59.85a.6.6,0,0,0,.64.64.93.93,0,0,0,.91-.62.85.85,0,0,0,0-.22Z"/>
      <path class="cls-2" d="M117.79,274.07l-.05-.47h0a1.41,1.41,0,0,1-1.15.56,1.07,1.07,0,0,1-1.14-1.08c0-.9.8-1.39,2.25-1.39v-.07a.78.78,0,0,0-.85-.87,1.84,1.84,0,0,0-1,.28l-.16-.45a2.34,2.34,0,0,1,1.23-.33c1.14,0,1.42.78,1.42,1.53v1.4a5.93,5.93,0,0,0,.06.89Zm-.1-1.91c-.74,0-1.58.12-1.58.85a.59.59,0,0,0,.64.64.91.91,0,0,0,.9-.62.57.57,0,0,0,0-.22Z"/>
      <path class="cls-2" d="M119.44,271.5c0-.44,0-.82,0-1.17h.6l0,.74h0a1.13,1.13,0,0,1,1-.82l.19,0v.64l-.23,0a1,1,0,0,0-.91.87,1.55,1.55,0,0,0,0,.32v2h-.67Z"/>
      <path class="cls-2" d="M122.27,272.33a1.19,1.19,0,0,0,1.28,1.29,2.42,2.42,0,0,0,1-.19l.12.49a3,3,0,0,1-1.24.23,1.74,1.74,0,0,1-1.84-1.88,1.81,1.81,0,0,1,1.75-2,1.59,1.59,0,0,1,1.55,1.76,2,2,0,0,1,0,.32Zm2-.49a1,1,0,0,0-.94-1.1,1.13,1.13,0,0,0-1,1.1Z"/>
    </g>
    <g>
      <path class="cls-2" d="M440.65,334.38l-2.09-6.4h.89l1,3.15c.28.87.51,1.65.68,2.4h0c.18-.74.45-1.55.73-2.39L443,328h.89l-2.29,6.4Z"/>
      <path class="cls-2" d="M448.35,332a2.24,2.24,0,0,1-2.28,2.44,2.18,2.18,0,0,1-2.21-2.36,2.24,2.24,0,0,1,2.28-2.44A2.17,2.17,0,0,1,448.35,332Zm-3.64,0c0,1,.58,1.77,1.39,1.77s1.4-.75,1.4-1.79c0-.78-.39-1.76-1.38-1.76S444.71,331.22,444.71,332.09Zm.23-3.09c0-.62.23-1,.64-1a1.21,1.21,0,0,1,.59.21.9.9,0,0,0,.4.16c.15,0,.25-.08.26-.41h.45q0,1-.66,1a1.2,1.2,0,0,1-.57-.19.9.9,0,0,0-.41-.17c-.15,0-.23.16-.25.43Z"/>
      <path class="cls-2" d="M449.4,331.22c0-.54,0-1,0-1.43h.73l0,.9h0a1.38,1.38,0,0,1,1.27-1,.88.88,0,0,1,.24,0v.79a1.14,1.14,0,0,0-.28,0,1.17,1.17,0,0,0-1.12,1.07,2.34,2.34,0,0,0,0,.39v2.45h-.83Z"/>
      <path class="cls-2" d="M456.35,333.13c0,.47,0,.89,0,1.25h-.74l0-.75h0a1.73,1.73,0,0,1-1.52.85c-.72,0-1.58-.4-1.58-2v-2.68h.83v2.54c0,.87.27,1.46,1,1.46a1.2,1.2,0,0,0,1.1-.76,1.38,1.38,0,0,0,.07-.43v-2.81h.84Z"/>
    </g>
    <circle class="cls-2" cx="449.06" cy="338.02" r="1.78"/>
    <circle class="cls-2" cx="257.38" cy="258.75" r="2.14"/>
    <g>
      <path class="cls-2" d="M243.9,248.91a9.67,9.67,0,0,1,1.51-.11,2.52,2.52,0,0,1,1.7.5,1.65,1.65,0,0,1,.53,1.27,1.79,1.79,0,0,1-.47,1.3,2.51,2.51,0,0,1-1.85.66,3,3,0,0,1-.63-.05v2.43h-.79Zm.79,2.93a2.84,2.84,0,0,0,.64.06c.95,0,1.53-.46,1.53-1.29s-.57-1.19-1.44-1.19a3,3,0,0,0-.73.06Z"/>
      <path class="cls-2" d="M250.85,254.91l-.07-.55h0a1.64,1.64,0,0,1-1.33.65,1.24,1.24,0,0,1-1.34-1.25c0-1.06.94-1.63,2.62-1.62v-.09a.9.9,0,0,0-1-1,2.13,2.13,0,0,0-1.13.32l-.18-.52a2.73,2.73,0,0,1,1.43-.39c1.33,0,1.66.91,1.66,1.79v1.62a5.66,5.66,0,0,0,.07,1Zm-.12-2.22c-.86,0-1.84.13-1.84,1a.69.69,0,0,0,.74.75,1,1,0,0,0,1.1-1Z"/>
      <path class="cls-2" d="M252.78,251.91c0-.51,0-.95,0-1.36h.69l0,.86h0a1.3,1.3,0,0,1,1.2-1,.8.8,0,0,1,.23,0v.75a1.06,1.06,0,0,0-.27,0,1.1,1.1,0,0,0-1.06,1,2,2,0,0,0,0,.37v2.32h-.78Z"/>
      <path class="cls-2" d="M255.76,251.73c0-.45,0-.82,0-1.18h.7l.05.72h0a1.6,1.6,0,0,1,1.44-.82c.6,0,1.54.36,1.54,1.86v2.6h-.79V252.4c0-.7-.27-1.29-1-1.29a1.14,1.14,0,0,0-1.07.81,1.32,1.32,0,0,0-.05.37v2.62h-.79Z"/>
      <path class="cls-2" d="M263.17,254.91l-.06-.55h0a1.62,1.62,0,0,1-1.33.65,1.24,1.24,0,0,1-1.33-1.25c0-1.06.93-1.63,2.62-1.62v-.09a.9.9,0,0,0-1-1,2.17,2.17,0,0,0-1.14.32l-.18-.52a2.73,2.73,0,0,1,1.43-.39c1.34,0,1.66.91,1.66,1.79v1.62a6.68,6.68,0,0,0,.07,1Zm-.12-2.22c-.86,0-1.84.13-1.84,1a.7.7,0,0,0,.75.75,1.09,1.09,0,0,0,1.05-.73.73.73,0,0,0,0-.25Z"/>
      <path class="cls-2" d="M265.34,250.55l.58,2.22c.13.48.24.93.32,1.38h0c.1-.44.24-.91.39-1.37l.71-2.23H268l.67,2.18c.16.52.29,1,.39,1.42h0a13.56,13.56,0,0,1,.34-1.41l.62-2.19h.78l-1.4,4.36h-.72l-.67-2.08c-.15-.49-.28-.92-.39-1.43h0a14.34,14.34,0,0,1-.4,1.44l-.7,2.07h-.72l-1.32-4.36Z"/>
      <path class="cls-2" d="M274,254.91l-.07-.55h0a1.66,1.66,0,0,1-1.34.65,1.24,1.24,0,0,1-1.33-1.25c0-1.06.94-1.63,2.62-1.62v-.09a.9.9,0,0,0-1-1,2.11,2.11,0,0,0-1.13.32l-.18-.52a2.73,2.73,0,0,1,1.43-.39c1.33,0,1.65.91,1.65,1.79v1.62a5.6,5.6,0,0,0,.08,1Zm-.12-2.22c-.87,0-1.85.13-1.85,1a.7.7,0,0,0,.75.75,1.07,1.07,0,0,0,1.05-.73.74.74,0,0,0,.05-.25Z"/>
    </g>
    <circle class="cls-2" cx="340.98" cy="262.6" r="2.14"/>
    <g>
      <path class="cls-2" d="M330,259.07l-1.7-5.23h.72l.82,2.58c.22.7.42,1.34.56,1.95h0c.15-.6.37-1.26.6-1.94l.88-2.59h.72l-1.86,5.23Z"/>
      <path class="cls-2" d="M333.83,254.26a.4.4,0,0,1-.43.42.4.4,0,0,1-.41-.42.41.41,0,0,1,.43-.42A.4.4,0,0,1,333.83,254.26Zm-.76,4.81v-3.75h.69v3.75Z"/>
      <path class="cls-2" d="M334.89,253.56h.68v5.51h-.68Z"/>
      <path class="cls-2" d="M335.8,260.15a1.16,1.16,0,0,0,.75-.28c.18-.22.25-.52.25-1.41v-3.14h.68v3.4a2.06,2.06,0,0,1-.44,1.54,1.77,1.77,0,0,1-1.17.43Zm1.76-5.89a.39.39,0,0,1-.42.42.4.4,0,0,1-.42-.42.41.41,0,0,1,.43-.42A.4.4,0,0,1,337.56,254.26Z"/>
      <path class="cls-2" d="M340.68,259.07l-.06-.47h0a1.4,1.4,0,0,1-1.15.55,1.06,1.06,0,0,1-1.14-1.07c0-.91.8-1.41,2.25-1.4v-.08a.76.76,0,0,0-.85-.86,1.89,1.89,0,0,0-1,.27l-.15-.45a2.34,2.34,0,0,1,1.23-.33c1.15,0,1.43.78,1.43,1.54v1.4a5,5,0,0,0,.06.9Zm-.1-1.92c-.75,0-1.59.12-1.59.85a.6.6,0,0,0,.64.65.94.94,0,0,0,.91-.63.85.85,0,0,0,0-.22Z"/>
      <path class="cls-2" d="M342.34,256.33c0-.39,0-.7,0-1h.6l0,.62h0a1.37,1.37,0,0,1,1.24-.71c.52,0,1.32.31,1.32,1.6v2.24h-.68v-2.16c0-.61-.23-1.11-.87-1.11a1,1,0,0,0-1,1v2.26h-.68Z"/>
      <path class="cls-2" d="M349.88,253.56v4.54c0,.33,0,.71,0,1h-.61l0-.65h0a1.37,1.37,0,0,1-1.27.73,1.71,1.71,0,0,1-1.61-1.9,1.8,1.8,0,0,1,1.68-2,1.23,1.23,0,0,1,1.13.58h0v-2.25Zm-.68,3.28a1.33,1.33,0,0,0,0-.28,1,1,0,0,0-1-.79c-.7,0-1.12.62-1.12,1.45s.37,1.38,1.11,1.38a1,1,0,0,0,1-.81,1.39,1.39,0,0,0,0-.3Z"/>
      <path class="cls-2" d="M351.77,254.26a.4.4,0,0,1-.43.42.4.4,0,0,1-.41-.42.41.41,0,0,1,.43-.42A.4.4,0,0,1,351.77,254.26Zm-.76,4.81v-3.75h.69v3.75Z"/>
    </g>
    <circle class="cls-2" cx="375.44" cy="345.92" r="1.81"/>
    <g>
      <path class="cls-2" d="M379.62,347.77l-1.84-5.63h.78l.88,2.77c.24.76.45,1.45.6,2.11h0c.16-.65.39-1.36.64-2.1l1-2.78h.77l-2,5.63Z"/>
      <path class="cls-2" d="M385,347.77l-.06-.51h0a1.5,1.5,0,0,1-1.24.61,1.15,1.15,0,0,1-1.23-1.17c0-1,.87-1.51,2.43-1.5v-.09a.83.83,0,0,0-.92-.93,1.93,1.93,0,0,0-1.05.3l-.17-.49a2.57,2.57,0,0,1,1.33-.36c1.24,0,1.54.85,1.54,1.66v1.51a5.73,5.73,0,0,0,.06,1Zm-.11-2.06c-.81,0-1.72.12-1.72.91a.65.65,0,0,0,.7.7,1,1,0,0,0,1-.68.59.59,0,0,0,.05-.23Z"/>
      <path class="cls-2" d="M386.78,341.84h.73v5.93h-.73Z"/>
      <path class="cls-2" d="M392.24,343.73c0,.29,0,.62,0,1.11v2.35a2.34,2.34,0,0,1-.57,1.85,2.21,2.21,0,0,1-1.48.48,2.66,2.66,0,0,1-1.34-.33l.18-.56a2.38,2.38,0,0,0,1.19.31c.75,0,1.3-.39,1.3-1.41v-.45h0a1.44,1.44,0,0,1-1.29.68,1.82,1.82,0,0,1-1.72-2,1.94,1.94,0,0,1,1.82-2.15,1.33,1.33,0,0,1,1.26.71h0l0-.61Zm-.77,1.59a.88.88,0,0,0,0-.33,1.05,1.05,0,0,0-1-.78c-.7,0-1.2.6-1.2,1.53s.4,1.46,1.2,1.46a1.08,1.08,0,0,0,1-.76,1.27,1.27,0,0,0,.05-.39Z"/>
      <path class="cls-2" d="M395.67,347.77l-.06-.51h0a1.5,1.5,0,0,1-1.24.61,1.16,1.16,0,0,1-1.23-1.17c0-1,.87-1.51,2.43-1.5v-.09a.83.83,0,0,0-.92-.93,1.93,1.93,0,0,0-1.05.3l-.17-.49a2.57,2.57,0,0,1,1.33-.36c1.24,0,1.54.85,1.54,1.66v1.51a5.73,5.73,0,0,0,.06,1Zm-.11-2.06c-.81,0-1.72.12-1.72.91a.65.65,0,0,0,.7.7,1,1,0,0,0,1-.68.85.85,0,0,0,0-.23Z"/>
    </g>
    <g>
      <path class="cls-2" d="M418.38,251H416.5v-.68h4.58V251h-1.89v5.51h-.81Z"/>
      <path class="cls-2" d="M423.62,256.48l-.07-.56h0a1.63,1.63,0,0,1-1.36.66,1.26,1.26,0,0,1-1.36-1.27c0-1.08,1-1.67,2.68-1.66v-.09a.92.92,0,0,0-1-1,2.22,2.22,0,0,0-1.16.33l-.18-.53a2.73,2.73,0,0,1,1.46-.39c1.36,0,1.69.92,1.69,1.82v1.66a6.81,6.81,0,0,0,.07,1.06Zm-.12-2.27c-.89,0-1.89.14-1.89,1a.72.72,0,0,0,.77.77,1.11,1.11,0,0,0,1.07-.75.74.74,0,0,0,.05-.25Z"/>
      <path class="cls-2" d="M425.58,253.42c0-.52,0-1,0-1.38h.7l0,.87h0a1.33,1.33,0,0,1,1.23-1l.23,0v.77a1.14,1.14,0,0,0-.28,0,1.13,1.13,0,0,0-1.08,1,2.1,2.1,0,0,0,0,.37v2.37h-.8Z"/>
      <path class="cls-2" d="M429.78,250.76V252h1.16v.61h-1.16v2.4c0,.55.16.86.61.86a1.75,1.75,0,0,0,.47,0l0,.6a1.78,1.78,0,0,1-.71.12,1.11,1.11,0,0,1-.87-.34,1.66,1.66,0,0,1-.32-1.16v-2.43h-.69V252H429V251Z"/>
      <path class="cls-2" d="M435.57,255.27c0,.46,0,.86,0,1.21h-.72l-.05-.72h0a1.66,1.66,0,0,1-1.47.82c-.7,0-1.54-.38-1.54-1.94V252h.81v2.46c0,.84.26,1.41,1,1.41a1.16,1.16,0,0,0,1.07-.73,1.35,1.35,0,0,0,.07-.41V252h.81Z"/>
    </g>
    <circle class="cls-2" cx="425.59" cy="260.93" r="1.73"/>
    <circle class="cls-2" cx="397.42" cy="117.87" r="2.14"/>
    <g>
      <path class="cls-2" d="M385.33,109.19a7,7,0,0,1,1.3-.11,2.16,2.16,0,0,1,1.51.42,1.33,1.33,0,0,1,.41,1,1.37,1.37,0,0,1-1,1.33v0a1.29,1.29,0,0,1,.76,1.06,8,8,0,0,0,.41,1.43H388a6.71,6.71,0,0,1-.35-1.25c-.15-.72-.43-1-1.05-1H386v2.26h-.68Zm.68,2.38h.69c.72,0,1.18-.4,1.18-1s-.49-1-1.21-1a2.84,2.84,0,0,0-.66.06Z"/>
      <path class="cls-2" d="M391.65,114.34l0-.47h0a1.39,1.39,0,0,1-1.14.56,1.07,1.07,0,0,1-1.15-1.08c0-.91.81-1.4,2.26-1.4v-.07a.78.78,0,0,0-.86-.87,1.84,1.84,0,0,0-1,.28l-.16-.45a2.34,2.34,0,0,1,1.23-.34c1.15,0,1.43.79,1.43,1.54v1.4a6.07,6.07,0,0,0,.06.9Zm-.1-1.91c-.74,0-1.59.11-1.59.84a.61.61,0,0,0,.65.65.93.93,0,0,0,.9-.63.52.52,0,0,0,0-.21Z"/>
      <path class="cls-2" d="M394,112.31h0c.09-.13.23-.29.33-.43l1.11-1.29h.82l-1.45,1.54,1.65,2.21h-.83l-1.3-1.8-.34.39v1.41h-.68v-5.5H394Z"/>
      <path class="cls-2" d="M397.31,110.59l.74,2.11c.12.34.22.65.3,1h0c.08-.31.19-.62.31-1l.73-2.11h.71l-1.47,3.75H398l-1.43-3.75Z"/>
      <path class="cls-2" d="M401.08,112.59a1.21,1.21,0,0,0,1.29,1.3,2.47,2.47,0,0,0,1-.19l.11.49a3.2,3.2,0,0,1-1.25.23,1.74,1.74,0,0,1-1.84-1.89,1.82,1.82,0,0,1,1.76-2,1.59,1.59,0,0,1,1.55,1.77c0,.14,0,.25,0,.32Zm2-.49a1,1,0,0,0-.95-1.11,1.12,1.12,0,0,0-1,1.11Z"/>
      <path class="cls-2" d="M404.58,111.76c0-.44,0-.82,0-1.17h.6l0,.74h0a1.12,1.12,0,0,1,1-.83.6.6,0,0,1,.2,0v.64a.82.82,0,0,0-.23,0,1,1,0,0,0-.92.87,2.91,2.91,0,0,0,0,.32v2h-.68Z"/>
      <path class="cls-2" d="M407.42,112.59a1.21,1.21,0,0,0,1.29,1.3,2.47,2.47,0,0,0,1-.19l.12.49a3.28,3.28,0,0,1-1.25.23,1.74,1.74,0,0,1-1.85-1.89,1.82,1.82,0,0,1,1.76-2,1.59,1.59,0,0,1,1.55,1.77,2.33,2.33,0,0,1,0,.32Zm2-.49a1,1,0,0,0-.94-1.11,1.14,1.14,0,0,0-1.05,1.11Z"/>
    </g>
    <circle class="cls-2" cx="537.13" cy="114.34" r="1.82"/>
    <g>
      <path class="cls-2" d="M510.82,117v-5.23h.73l1.68,2.65a14.72,14.72,0,0,1,.93,1.69h0c-.06-.7-.08-1.34-.08-2.15v-2.19h.64V117h-.68l-1.66-2.65a14.73,14.73,0,0,1-1-1.75h0c0,.66.05,1.29.05,2.16V117Z"/>
      <path class="cls-2" d="M518,117l-.05-.47h0a1.4,1.4,0,0,1-1.14.55,1.07,1.07,0,0,1-1.15-1.07c0-.91.81-1.41,2.26-1.4v-.08a.77.77,0,0,0-.86-.86,1.83,1.83,0,0,0-1,.27l-.16-.45a2.34,2.34,0,0,1,1.23-.33c1.15,0,1.43.78,1.43,1.54v1.4a5,5,0,0,0,.06.9Zm-.1-1.92c-.74,0-1.59.12-1.59.85a.61.61,0,0,0,.64.65.94.94,0,0,0,.91-.63.57.57,0,0,0,0-.22Z"/>
      <path class="cls-2" d="M519.63,114.46c0-.44,0-.82,0-1.17h.6l0,.73h0a1.13,1.13,0,0,1,1-.82.54.54,0,0,1,.19,0v.64a.82.82,0,0,0-.23,0,1,1,0,0,0-.91.87,1.51,1.51,0,0,0,0,.32v2h-.68Z"/>
      <path class="cls-2" d="M522.63,113.29l.5,1.9c.11.42.21.81.28,1.2h0c.09-.38.21-.79.33-1.19l.62-1.91H525l.58,1.87c.14.45.25.85.33,1.23h0a11.58,11.58,0,0,1,.28-1.22l.54-1.88h.67L526.17,117h-.62l-.57-1.79a12.35,12.35,0,0,1-.33-1.23h0a11.22,11.22,0,0,1-.34,1.24l-.6,1.78h-.62l-1.14-3.75Z"/>
      <path class="cls-2" d="M530.11,117l-.05-.47h0a1.42,1.42,0,0,1-1.15.55,1.07,1.07,0,0,1-1.15-1.07c0-.91.81-1.41,2.26-1.4v-.08a.77.77,0,0,0-.86-.86,1.86,1.86,0,0,0-1,.27l-.16-.45a2.35,2.35,0,0,1,1.24-.33c1.14,0,1.42.78,1.42,1.54v1.4a6.17,6.17,0,0,0,.06.9Zm-.1-1.92c-.74,0-1.59.12-1.59.85a.61.61,0,0,0,.65.65.91.91,0,0,0,.9-.63.57.57,0,0,0,0-.22Z"/>
    </g>
    <circle class="cls-2" cx="468.47" cy="111.81" r="1.85"/>
    <g>
      <path class="cls-2" d="M451.81,103.56h.68v2.54h0l.42-.56,1.61-2h.85l-1.91,2.24,2.06,3h-.81L453,106.24l-.5.58v2h-.68Z"/>
      <path class="cls-2" d="M459.46,106.91a1.85,1.85,0,0,1-1.89,2,1.8,1.8,0,0,1-1.81-2,1.85,1.85,0,0,1,1.87-2A1.8,1.8,0,0,1,459.46,106.91Zm-3,0c0,.83.48,1.45,1.15,1.45s1.15-.61,1.15-1.47c0-.64-.32-1.45-1.13-1.45S456.45,106.23,456.45,107Z"/>
      <path class="cls-2" d="M460.33,103.28H461v2.36h0a1.22,1.22,0,0,1,.5-.48,1.36,1.36,0,0,1,.7-.2c.51,0,1.32.31,1.32,1.62v2.25h-.69v-2.17c0-.61-.22-1.13-.87-1.13a1,1,0,0,0-.93.69,1.06,1.06,0,0,0,0,.33v2.28h-.69Z"/>
      <path class="cls-2" d="M465.47,104v1.09h1v.52h-1v2c0,.47.14.74.52.74a1.3,1.3,0,0,0,.4,0l0,.52a1.78,1.78,0,0,1-.61.09.93.93,0,0,1-.74-.29,1.37,1.37,0,0,1-.27-1v-2.07h-.59v-.52h.59v-.91Z"/>
      <path class="cls-2" d="M467.23,103.28h.69v5.55h-.69Z"/>
      <path class="cls-2" d="M471.18,108.83l-.06-.47h0a1.43,1.43,0,0,1-1.16.56,1.08,1.08,0,0,1-1.15-1.09c0-.91.81-1.41,2.27-1.41v-.07a.78.78,0,0,0-.86-.88,1.94,1.94,0,0,0-1,.28l-.15-.45a2.29,2.29,0,0,1,1.24-.34c1.16,0,1.44.79,1.44,1.55v1.42a4.84,4.84,0,0,0,.07.9Zm-.1-1.93c-.75,0-1.61.12-1.61.85a.61.61,0,0,0,.65.66.94.94,0,0,0,.92-.63.85.85,0,0,0,0-.22Z"/>
      <path class="cls-2" d="M474.45,106.46V107h-1.93v-.51Z"/>
      <path class="cls-2" d="M476.21,103.56h.68v3.53c0,1.4-.69,1.83-1.6,1.83a2.28,2.28,0,0,1-.73-.12l.11-.56a1.72,1.72,0,0,0,.57.1c.61,0,1-.27,1-1.31Z"/>
      <path class="cls-2" d="M480.1,108.83l-.06-.47h0a1.43,1.43,0,0,1-1.16.56,1.08,1.08,0,0,1-1.16-1.09c0-.91.82-1.41,2.28-1.41v-.07a.78.78,0,0,0-.86-.88,1.94,1.94,0,0,0-1,.28l-.15-.45a2.29,2.29,0,0,1,1.24-.34c1.16,0,1.44.79,1.44,1.55v1.42a4.84,4.84,0,0,0,.07.9ZM478.2,104a.4.4,0,0,1,.4-.4.4.4,0,0,1,0,.8A.39.39,0,0,1,478.2,104Zm1.8,2.93c-.75,0-1.61.12-1.61.85a.61.61,0,0,0,.65.66.94.94,0,0,0,.92-.63.85.85,0,0,0,0-.22Zm-.35-2.93a.4.4,0,0,1,.39-.4.39.39,0,0,1,.39.4.39.39,0,1,1-.78,0Z"/>
      <path class="cls-2" d="M481.77,106.23c0-.45,0-.83,0-1.18h.61l0,.74h0a1.14,1.14,0,0,1,1.05-.83l.2,0v.65l-.24,0a1,1,0,0,0-.92.88,1.69,1.69,0,0,0,0,.33v2h-.69Z"/>
      <path class="cls-2" d="M484.8,105.05l.74,2.13a8.32,8.32,0,0,1,.31,1h0c.09-.32.2-.63.32-1l.74-2.13h.72l-1.49,3.78h-.66l-1.44-3.78Z"/>
      <path class="cls-2" d="M488.6,107.07a1.21,1.21,0,0,0,1.3,1.31,2.69,2.69,0,0,0,1.05-.19l.12.49a3.08,3.08,0,0,1-1.26.23A1.75,1.75,0,0,1,488,107a1.84,1.84,0,0,1,1.77-2,1.61,1.61,0,0,1,1.57,1.79,2,2,0,0,1,0,.32Zm2-.5a1,1,0,0,0-.95-1.12,1.15,1.15,0,0,0-1.06,1.12Z"/>
    </g>
  </g>
</svg>
