<svg xmlns="http://www.w3.org/2000/svg" width="130" height="130" viewBox="0 0 130 130">
  <defs>
    <style>
      .cls-1 {
        fill: #969dab;
      }
    </style>
  </defs>
  <g id="circle_back2">
    <path class="cls-1" d="M91.67,102a46.13,46.13,0,0,1-16.41-4C64.29,93.16,55,86.06,46.7,77.48A87.53,87.53,0,0,1,28.92,51.43,43.49,43.49,0,0,1,25.11,36a15.93,15.93,0,0,1,4.83-12.53c1.43-1.41,2.87-2.82,4.35-4.19a3.79,3.79,0,0,1,5.77.1q5.16,5.15,10.25,10.34a3.83,3.83,0,0,1,0,5.77c-2.27,2.31-4.57,4.58-6.86,6.87-1.91,1.91-2.11,3.37-.72,5.7A105.57,105.57,0,0,0,77.42,83.5c.76.49,1.52,1,2.31,1.43a3.78,3.78,0,0,0,4.87-.62c2.31-2.26,4.58-4.57,6.88-6.86s4.18-2.32,6.52,0q5,5,10,10c1.43,1.44,1.77,3.37.47,4.8-2.67,2.93-5.19,6.08-8.89,7.86A17.55,17.55,0,0,1,91.67,102Z"/>
  </g>
</svg>
