<svg xmlns="http://www.w3.org/2000/svg" width="49" height="50" viewBox="0 0 49 50">
  <defs>
    <style>
      .cls-1 {
        fill: #fff;
      }
    </style>
  </defs>
  <g id="circle_back2">
    <path class="cls-1" d="M11.72,25.37l-7.38-7c3.05-.35,5.62-.71,8.21-.91,1.5-.12,1.93-.64,1.56-2.15-.61-2.53-1-5.12-1.61-8.16,2.62,1.46,4.89,2.61,7,4,1.45.92,2.13.65,2.76-.91,1-2.36,2.15-4.63,3.39-7.28L30,12.06l8.84-4.8c-.56,3-1,5.53-1.55,8.06-.36,1.49,0,2,1.54,2.16,2.56.2,5.1.56,7.85.88l-7,7L47,32.29,37,33.56c.61,3.22,1.19,6.32,1.87,9.93L30,38.65l-4.3,9.05-4.36-9-8.82,4.8L14.4,33.6l-10-1.33Zm14-11.85a11.77,11.77,0,0,0-12,11.87A12,12,0,0,0,25.63,37.33a12.07,12.07,0,0,0,12-12A11.8,11.8,0,0,0,25.76,13.52Zm-.08,30.81,2.56-5.58H23.16ZM20,37.68l-4.23-3-1.15,6ZM19.9,13l-5.35-3,1.24,6.05ZM35.64,34.61l-4.17,3.11,5.3,2.92C36.35,38.4,36,36.65,35.64,34.61ZM39.16,27l-1.49,4.92,6-.74ZM7.69,19.48l4.5,4.21,1.57-4.93Zm27.93-3.4c.39-2,.73-3.77,1.17-6L31.48,13ZM13.76,31.91c-.57-1.76-1-3.15-1.57-4.87L7.72,31.21ZM43.15,20l-.09-.58-5.42-.65,1.55,4.92Zm-20-8.07h5c-.84-1.82-1.58-3.42-2.55-5.5Z"/>
  </g>
</svg>
